<?xml version="1.0" standalone="no"?><!DOCTYPE svg PUBLIC "-//W3C//DTD SVG 1.1//EN" "http://www.w3.org/Graphics/SVG/1.1/DTD/svg11.dtd"><svg t="1547124389973" class="icon" style="" viewBox="0 0 1024 1024" version="1.1" xmlns="http://www.w3.org/2000/svg" p-id="1636" xmlns:xlink="http://www.w3.org/1999/xlink" width="128" height="128"><defs><style type="text/css"></style></defs><path d="M949.4634 395.524219 515.394307 104.847953l-1.605567-2.406816-0.995677 0.664126-0.929162-0.62217-1.50426 2.246157L74.5366 395.476123l0 172.018795 88.921215 0 1.656733 354.063945 326.929957 0 40.932248 0 330.271052 0-0.49835-354.063945 86.712921 0L949.462377 395.524219zM863.505679 481.536174l-86.834694 0 0.49835 354.063945-244.191558 0-40.932248 0L250.671133 835.600119l-1.656733-354.063945-88.520079 0 0-40.074717L512.703011 206.496028l350.802668 234.916311L863.505679 481.536174z" p-id="1637"></path><path d="M619.98848 595.156932c-18.137079-19.177781-51.812039-42.005696-107.476827-42.286082l0-0.013303c-0.172939 0-0.339738 0.00614-0.511653 0.00614-0.171915 0-0.338714-0.00614-0.511653-0.00614l0 0.013303c-55.664787 0.279363-89.338724 23.107277-107.475803 42.285059-39.993876 42.292222-40.295751 99.460246-39.880289 111.090121l0 172.33295 85.957721 0L450.089975 705.33631l0.090051-0.792039-0.073678-1.446955c-0.261966-8.868995 2.26253-34.263361 16.645099-49.178049 9.722432-10.080589 24.045649-15.018042 45.248553-15.096836 21.202904 0.079818 35.527145 5.016247 45.248553 15.096836 14.368242 14.899338 16.972557 40.254819 16.71673 49.148373l-0.056282 0.657986 0 174.853353 85.957721 0L659.866722 706.246029C660.283208 694.616154 659.982356 637.449153 619.98848 595.156932z" p-id="1638"></path></svg>