<?xml version="1.0" standalone="no"?><!DOCTYPE svg PUBLIC "-//W3C//DTD SVG 1.1//EN" "http://www.w3.org/Graphics/SVG/1.1/DTD/svg11.dtd"><svg t="1547124705178" class="icon" style="" viewBox="0 0 1024 1024" version="1.1" xmlns="http://www.w3.org/2000/svg" p-id="5494" xmlns:xlink="http://www.w3.org/1999/xlink" width="128" height="128"><defs><style type="text/css"></style></defs><path d="M721.7 959.7c-131.4 0-237.9-106.5-237.9-237.9s106.5-237.9 237.9-237.9 237.9 106.5 237.9 237.9-106.5 237.9-237.9 237.9z m0-419.8c-100.5 0-181.9 81.5-181.9 181.9 0 100.5 81.5 181.9 181.9 181.9 100.5 0 181.9-81.5 181.9-181.9 0.1-100.4-81.4-181.9-181.9-181.9z m112 223.9H693.8c-7.7 0-14-6.3-14-14V609.9c0-7.7 6.3-14 14-14h28c7.7 0 14 6.3 14 14v98h98c7.7 0 14 6.3 14 14v28c-0.1 7.6-6.4 13.9-14.1 13.9z m-14-615.7c0-15.5-12.5-28-28-28H148c-15.4 0-28 12.5-28 28v727.7c0 15.4 12.5 28 28 28h279.9v56H120c-30.9 0-56-25.1-56-56V120c0-30.9 25-56 56-56h699.7c30.9 0 56 25 56 56v251.8h-56V148.1zM273.9 679.8h111.9c7.7 0 14 6.2 14 14v28c0 7.7-6.3 14-14 14H273.9c-7.7 0-14-6.3-14-14v-28c0-7.8 6.2-14 14-14z m-14-349.8v-28c0-7.7 6.3-14 14-14h419.8c7.7 0 14 6.3 14 14v28c0 7.7-6.2 14-14 14H273.9c-7.8 0-14-6.3-14-14z m0 195.9v-28c0-7.7 6.3-14 14-14h195.9c7.7 0 14 6.3 14 14v28c0 7.7-6.3 14-14 14H273.9c-7.8 0-14-6.3-14-14z" fill="" p-id="5495"></path></svg>